<?xml version="1.0" standalone="no"?>
<!DOCTYPE svg PUBLIC "-//W3C//DTD SVG 20010904//EN"
 "http://www.w3.org/TR/2001/REC-SVG-20010904/DTD/svg10.dtd">
<svg version="1.0" xmlns="http://www.w3.org/2000/svg"
 width="53.000000pt" height="53.000000pt" viewBox="0 0 53.000000 53.000000"
 preserveAspectRatio="xMidYMid meet">

<g transform="translate(0.000000,53.000000) scale(0.100000,-0.100000)"
fill="#000000" stroke="none">
<path d="M213 490 c-35 -14 -27 -19 11 -8 104 32 212 -67 192 -176 -9 -48 -59
-103 -106 -117 -138 -42 -257 124 -169 236 12 14 19 29 16 32 -9 9 -46 -59
-54 -97 -4 -22 0 -51 10 -79 14 -39 14 -48 1 -72 -19 -37 -17 -52 2 -16 8 16
18 27 22 25 53 -23 92 -45 92 -51 0 -4 -14 -32 -31 -63 l-32 -55 -18 31 c-20
32 -24 32 -78 12 -11 -4 -11 -1 -1 17 18 35 6 34 -15 -1 l-18 -31 29 6 c16 3
36 8 45 12 12 4 20 -3 29 -25 7 -17 16 -33 21 -35 4 -3 25 26 46 65 27 50 44
70 58 70 14 0 31 -20 58 -70 21 -39 42 -68 46 -65 5 2 14 18 21 35 9 22 17 29
29 25 9 -4 29 -9 45 -12 l30 -6 -24 39 c-13 21 -27 43 -32 49 -15 17 -8 -3 14
-41 l21 -36 -24 7 c-13 4 -29 10 -36 12 -7 3 -21 -9 -31 -27 l-19 -31 -32 55
c-17 31 -31 59 -31 63 1 5 22 18 48 31 44 23 47 23 60 5 14 -17 14 -17 7 2
-11 30 -11 36 4 82 41 125 -87 251 -206 203z"/>
<path d="M218 363 c7 -3 16 -2 19 1 4 3 -2 6 -13 5 -11 0 -14 -3 -6 -6z"/>
<path d="M298 363 c7 -3 16 -2 19 1 4 3 -2 6 -13 5 -11 0 -14 -3 -6 -6z"/>
<path d="M211 274 c0 -11 3 -14 6 -6 3 7 2 16 -1 19 -3 4 -6 -2 -5 -13z"/>
<path d="M311 274 c0 -11 3 -14 6 -6 3 7 2 16 -1 19 -3 4 -6 -2 -5 -13z"/>
</g>
</svg>
