<?xml version="1.0" encoding="utf-8"?><svg version="1.1" id="Layer_1" xmlns="http://www.w3.org/2000/svg" xmlns:xlink="http://www.w3.org/1999/xlink" x="0px" y="0px" viewBox="0 0 112.09 122.88" style="enable-background:new 0 0 112.09 122.88" xml:space="preserve"><style type="text/css">.st0{fill-rule:evenodd;clip-rule:evenodd;}</style><g><path class="st0" d="M55.85,0c20.92,13.23,39.76,19.51,55.99,18.03c2.85,57.24-18.29,90.77-55.77,104.85 C19.89,109.69-1.51,77.61,0.08,17.15C19.11,18.15,37.78,14.04,55.85,0L55.85,0z M34.01,46.1c9.86-10.88,21.24-16.79,29.77-7.11 c2.24,0.11,4.24,0.85,5.91,2.42c3.51,3.3,4.05,9.47,2.45,14.37v4.28c1.09,0.72,1.79,2.05,2.11,3.58c0.21,0.98,0.26,2.07,0.16,3.1 c-0.11,1.07-0.37,2.09-0.8,2.94c-0.61,1.21-1.54,2.05-2.8,2.24c-1.23,1.31-2.44,2.72-3.51,4.07c-1.18,1.48-2.19,2.89-2.89,4.04 c-0.54,0.89-0.37,1.47-0.17,2.13c0.09,0.33,0.2,0.68,0.26,1.05c2.16,0.46,4.11,0.83,5.86,1.17c9.75,1.82,13.61,2.55,14.41,12.47 c14.78-16.24,22.32-40.46,20.67-73.78C91.1,24.35,74.4,18.81,55.88,7.1v0.04c-16,12.42-32.52,16.08-49.37,15.19 c-0.91,34.57,6.69,58.64,20.8,74.49c0.8-9.89,4.65-10.62,14.41-12.44c1.76-0.33,3.74-0.7,5.9-1.17c0.08-0.29,0.17-0.56,0.27-0.82 c0.23-0.64,0.45-1.27-0.21-2.34c-0.7-1.15-1.71-2.56-2.89-4.04c-1.07-1.35-2.28-2.76-3.51-4.07c-1.26-0.19-2.19-1.03-2.8-2.24 c-0.42-0.83-0.69-1.87-0.8-2.94c-0.09-1.03-0.04-2.12,0.16-3.1c0.32-1.52,1.01-2.85,2.08-3.56l-1.44-0.86 c-0.38-4.28,0.74-11.71-4.48-13.12L34.01,46.1L34.01,46.1z M82.25,99.46c-0.34-10.22-3.47-10.81-12.35-12.48 c-2-0.37-4.28-0.79-6.89-1.39c-0.62-0.13-1.03-0.69-1.03-1.3c0-0.52-0.13-0.97-0.25-1.4c-0.37-1.25-0.69-2.36,0.45-4.24 c0.77-1.27,1.85-2.78,3.07-4.32c1.22-1.54,2.61-3.14,4.03-4.61c0.28-0.3,0.68-0.44,1.06-0.41h0.01c0.37-0.01,0.69-0.33,0.94-0.82 c0.28-0.54,0.45-1.23,0.52-1.97c0.08-0.77,0.03-1.58-0.12-2.31c-0.21-1.02-0.61-1.84-1.17-1.99c-0.61-0.16-1.01-0.7-1.01-1.3v-6.27 l-0.04-0.01c-0.24-1.76-0.7-3.25-1.35-4.48c-0.84-1.05-2.05-1.93-3.63-3.09l-0.17-0.13c-0.33-0.24-0.66-0.48-1.01-0.69 c-5.27,3.42-7.83,2.62-12.08,3.33c-3.86,0.64-6.98,2.07-8.62,4.69v6.65c0,0.64-0.44,1.17-1.03,1.3c-0.53,0.16-0.93,0.97-1.14,1.97 c-0.16,0.73-0.2,1.54-0.12,2.31c0.07,0.74,0.24,1.43,0.52,1.97c0.25,0.49,0.57,0.82,0.94,0.82h0.08c0.38,0,0.74,0.16,0.98,0.41 c1.42,1.48,2.81,3.09,4.03,4.62c1.23,1.54,2.31,3.05,3.07,4.32c1.31,2.15,0.87,3.38,0.45,4.6c-0.12,0.36-0.25,0.7-0.25,1.05 c0,0.68-0.5,1.23-1.14,1.32c-2.57,0.58-4.81,0.99-6.78,1.36c-8.9,1.67-12.02,2.25-12.35,12.53c7.28,7.29,16.09,12.66,26.21,16.35 C66.21,112.04,75.01,106.6,82.25,99.46L82.25,99.46z"/></g></svg>